<svg width="49" height="18" viewBox="0 0 49 18" fill="none" xmlns="http://www.w3.org/2000/svg">
<path d="M46.8354 17.5661C45.4077 17.5661 44.3569 17.2372 43.6832 16.5795C43.0255 15.9057 42.6966 14.9191 42.6966 13.6197V2.23801L45.1751 1.29956V13.6438C45.1751 14.2855 45.3435 14.7587 45.6804 15.0635C46.0173 15.3683 46.5627 15.5207 47.3167 15.5207C47.6054 15.5207 47.8621 15.4966 48.0867 15.4485C48.3113 15.4004 48.5038 15.3442 48.6642 15.2801V17.3014C48.4877 17.3816 48.2391 17.4457 47.9182 17.4939C47.5974 17.542 47.2365 17.5661 46.8354 17.5661ZM40.2422 7.05058V5.05337H45.1751V7.05058H40.2422Z" fill="#071641"/>
<path d="M46.4983 5.021H48.6848V7.04552H46.4983V5.021Z" fill="#6F7AF6"/>
<path d="M35.3914 17.5661C34.1561 17.5661 33.0653 17.2933 32.1188 16.7479C31.1884 16.2025 30.4585 15.4485 29.9291 14.486C29.3997 13.5235 29.135 12.4166 29.135 11.1653C29.135 9.89803 29.3917 8.79114 29.905 7.84466C30.4344 6.88215 31.1723 6.1362 32.1188 5.60682C33.0653 5.07744 34.1481 4.81274 35.3673 4.81274C36.5544 4.81274 37.5811 5.06941 38.4473 5.58276C39.3296 6.08005 40.0034 6.77788 40.4686 7.67622C40.9499 8.57457 41.1905 9.64136 41.1905 10.8766C41.1905 11.0691 41.1825 11.2536 41.1664 11.43C41.1664 11.5904 41.1504 11.7589 41.1183 11.9354H30.8194V10.0584H39.3617L38.7361 10.8044C38.7361 9.48896 38.4393 8.48634 37.8458 7.79654C37.2522 7.10674 36.4261 6.76184 35.3673 6.76184C34.2283 6.76184 33.3219 7.15486 32.6482 7.94092C31.9905 8.71093 31.6616 9.78574 31.6616 11.1653C31.6616 12.561 31.9905 13.6518 32.6482 14.4379C33.3219 15.2239 34.2524 15.617 35.4395 15.617C36.1614 15.617 36.787 15.4726 37.3164 15.1838C37.8458 14.879 38.2388 14.4379 38.4955 13.8604H40.8536C40.4526 15.0154 39.7708 15.9218 38.8083 16.5795C37.8618 17.2372 36.7228 17.5661 35.3914 17.5661Z" fill="url(#paint0_linear_52_863)"/>
<path d="M35.3914 17.5661C34.1561 17.5661 33.0653 17.2933 32.1188 16.7479C31.1884 16.2025 30.4585 15.4485 29.9291 14.486C29.3997 13.5235 29.135 12.4166 29.135 11.1653C29.135 9.89803 29.3917 8.79114 29.905 7.84466C30.4344 6.88215 31.1723 6.1362 32.1188 5.60682C33.0653 5.07744 34.1481 4.81274 35.3673 4.81274C36.5544 4.81274 37.5811 5.06941 38.4473 5.58276C39.3296 6.08005 40.0034 6.77788 40.4686 7.67622C40.9499 8.57457 41.1905 9.64136 41.1905 10.8766C41.1905 11.0691 41.1825 11.2536 41.1664 11.43C41.1664 11.5904 41.1504 11.7589 41.1183 11.9354H30.8194V10.0584H39.3617L38.7361 10.8044C38.7361 9.48896 38.4393 8.48634 37.8458 7.79654C37.2522 7.10674 36.4261 6.76184 35.3673 6.76184C34.2283 6.76184 33.3219 7.15486 32.6482 7.94092C31.9905 8.71093 31.6616 9.78574 31.6616 11.1653C31.6616 12.561 31.9905 13.6518 32.6482 14.4379C33.3219 15.2239 34.2524 15.617 35.4395 15.617C36.1614 15.617 36.787 15.4726 37.3164 15.1838C37.8458 14.879 38.2388 14.4379 38.4955 13.8604H40.8536C40.4526 15.0154 39.7708 15.9218 38.8083 16.5795C37.8618 17.2372 36.7228 17.5661 35.3914 17.5661Z" fill="url(#paint1_linear_52_863)"/>
<path d="M24.395 17.5661C22.7908 17.5661 21.5155 17.2131 20.569 16.5073C19.6225 15.8014 19.0851 14.8069 18.9568 13.5235H21.2668C21.3791 14.2293 21.7 14.7748 22.2293 15.1598C22.7748 15.5287 23.5127 15.7132 24.4431 15.7132C25.2613 15.7132 25.8869 15.5688 26.32 15.2801C26.7532 14.9913 26.9697 14.5823 26.9697 14.0529C26.9697 13.6679 26.8414 13.347 26.5847 13.0904C26.3441 12.8177 25.8628 12.5931 25.1409 12.4166L23.1678 11.9594C21.9326 11.6546 21.0102 11.2054 20.4006 10.6119C19.807 10.0023 19.5102 9.25635 19.5102 8.37405C19.5102 7.26716 19.9193 6.40089 20.7374 5.77526C21.5716 5.13358 22.7106 4.81274 24.1544 4.81274C25.5821 4.81274 26.7291 5.13358 27.5954 5.77526C28.4777 6.41693 28.975 7.31528 29.0873 8.4703H26.7772C26.681 7.89279 26.4002 7.45164 25.935 7.14684C25.4858 6.826 24.8682 6.66558 24.0822 6.66558C23.3442 6.66558 22.7748 6.80194 22.3737 7.07465C21.9887 7.33132 21.7962 7.69227 21.7962 8.15748C21.7962 8.54249 21.9406 8.86332 22.2293 9.12C22.5341 9.37667 23.0314 9.59323 23.7212 9.76969L25.7425 10.275C26.9136 10.5638 27.7959 11.037 28.3894 11.6947C28.983 12.3364 29.2798 13.1144 29.2798 14.0288C29.2798 15.1357 28.8466 16.002 27.9804 16.6276C27.1301 17.2532 25.935 17.5661 24.395 17.5661Z" fill="url(#paint2_linear_52_863)"/>
<path d="M15.8767 17.3253V0H18.3792V17.3253H15.8767Z" fill="url(#paint3_linear_52_863)"/>
<path d="M15.8767 17.3253V0H18.3792V17.3253H15.8767Z" fill="url(#paint4_linear_52_863)"/>
<path d="M11.7861 17.3253V0H14.2887V17.3253H11.7861Z" fill="url(#paint5_linear_52_863)"/>
<path d="M11.7861 17.3253V0H14.2887V17.3253H11.7861Z" fill="url(#paint6_linear_52_863)"/>
<path d="M15.8768 17.3253V0H18.3794V17.3253H15.8768Z" fill="url(#paint7_linear_52_863)"/>
<path d="M15.8768 17.3253V0H18.3794V17.3253H15.8768Z" fill="url(#paint8_linear_52_863)"/>
<path d="M11.7861 17.3253V0H14.2887V17.3253H11.7861Z" fill="url(#paint9_linear_52_863)"/>
<path d="M11.7861 17.3253V0H14.2887V17.3253H11.7861Z" fill="url(#paint10_linear_52_863)"/>
<path d="M1.28984 16.6778C2.03157 17.2905 3.0313 17.5969 4.28902 17.5969C5.11874 17.5969 6.11006 17.4137 6.85816 17.1189L6.75168 16.5271C6.68783 16.1722 6.65571 15.8123 6.65571 15.4517V15.2683C6.14363 15.4985 5.54823 15.6136 4.8695 15.6136C4.14389 15.6136 3.5876 15.4765 3.20061 15.2024C2.82974 14.9121 2.64431 14.4848 2.64431 13.9205C2.64431 13.34 2.84587 12.8966 3.24898 12.5902C3.66822 12.2838 4.28902 12.0661 5.11137 11.9372L8.78778 11.3567V9.59102L4.72438 10.2441C3.25704 10.4698 2.12832 10.9052 1.33822 11.5502C0.564236 12.179 0.177246 13.0417 0.177246 14.1382C0.177246 15.2024 0.548112 16.0489 1.28984 16.6778Z" fill="black"/>
<path d="M1.28984 16.6778C2.03157 17.2905 3.0313 17.5969 4.28902 17.5969C5.11874 17.5969 6.11006 17.4137 6.85816 17.1189L6.75168 16.5271C6.68783 16.1722 6.65571 15.8123 6.65571 15.4517V15.2683C6.14363 15.4985 5.54823 15.6136 4.8695 15.6136C4.14389 15.6136 3.5876 15.4765 3.20061 15.2024C2.82974 14.9121 2.64431 14.4848 2.64431 13.9205C2.64431 13.34 2.84587 12.8966 3.24898 12.5902C3.66822 12.2838 4.28902 12.0661 5.11137 11.9372L8.78778 11.3567V9.59102L4.72438 10.2441C3.25704 10.4698 2.12832 10.9052 1.33822 11.5502C0.564236 12.179 0.177246 13.0417 0.177246 14.1382C0.177246 15.2024 0.548112 16.0489 1.28984 16.6778Z" fill="url(#paint11_linear_52_863)"/>
<path d="M7.90754 9.10728V14.9847C7.90754 15.7396 8.00187 16.4915 8.18833 17.223L8.22197 17.355H10.6648C10.5681 16.9196 10.4955 16.5085 10.4472 16.1215C10.3988 15.7345 10.3746 15.3556 10.3746 14.9847V9.20403C10.3746 7.75282 9.97149 6.65635 9.16526 5.91462C8.35903 5.15676 7.14969 4.77783 5.53723 4.77783C3.97314 4.77783 2.72349 5.12451 1.78826 5.81787C0.853037 6.51123 0.328987 7.43839 0.216115 8.59936H2.61062C2.69124 8.00275 2.97342 7.5432 3.45716 7.22071C3.95702 6.89822 4.61813 6.73697 5.44048 6.73697C6.29508 6.73697 6.91588 6.93853 7.30287 7.34164C7.70599 7.72863 7.90754 8.31718 7.90754 9.10728Z" fill="black"/>
<path d="M7.90754 9.10728V14.9847C7.90754 15.7396 8.00187 16.4915 8.18833 17.223L8.22197 17.355H10.6648C10.5681 16.9196 10.4955 16.5085 10.4472 16.1215C10.3988 15.7345 10.3746 15.3556 10.3746 14.9847V9.20403C10.3746 7.75282 9.97149 6.65635 9.16526 5.91462C8.35903 5.15676 7.14969 4.77783 5.53723 4.77783C3.97314 4.77783 2.72349 5.12451 1.78826 5.81787C0.853037 6.51123 0.328987 7.43839 0.216115 8.59936H2.61062C2.69124 8.00275 2.97342 7.5432 3.45716 7.22071C3.95702 6.89822 4.61813 6.73697 5.44048 6.73697C6.29508 6.73697 6.91588 6.93853 7.30287 7.34164C7.70599 7.72863 7.90754 8.31718 7.90754 9.10728Z" fill="url(#paint12_linear_52_863)"/>
<defs>
<linearGradient id="paint0_linear_52_863" x1="31.3736" y1="8.75022" x2="41.2649" y2="19.1171" gradientUnits="userSpaceOnUse">
<stop offset="0.116633" stop-color="#6F7AF6"/>
<stop offset="1" stop-color="#A7AFFF"/>
</linearGradient>
<linearGradient id="paint1_linear_52_863" x1="35.1628" y1="4.81274" x2="35.1628" y2="17.5661" gradientUnits="userSpaceOnUse">
<stop stop-color="#071641"/>
<stop offset="1" stop-color="#0F2051"/>
</linearGradient>
<linearGradient id="paint2_linear_52_863" x1="24.1183" y1="4.81274" x2="24.1183" y2="17.5661" gradientUnits="userSpaceOnUse">
<stop stop-color="#071641"/>
<stop offset="1" stop-color="#0F2051"/>
</linearGradient>
<linearGradient id="paint3_linear_52_863" x1="16.3414" y1="5.34902" x2="20.5424" y2="6.02182" gradientUnits="userSpaceOnUse">
<stop offset="0.116633" stop-color="#6F7AF6"/>
<stop offset="1" stop-color="#A7AFFF"/>
</linearGradient>
<linearGradient id="paint4_linear_52_863" x1="17.128" y1="0" x2="17.128" y2="17.3253" gradientUnits="userSpaceOnUse">
<stop stop-color="#071641"/>
<stop offset="1" stop-color="#0F2051"/>
</linearGradient>
<linearGradient id="paint5_linear_52_863" x1="12.2508" y1="5.34902" x2="16.4518" y2="6.02182" gradientUnits="userSpaceOnUse">
<stop offset="0.116633" stop-color="#6F7AF6"/>
<stop offset="1" stop-color="#A7AFFF"/>
</linearGradient>
<linearGradient id="paint6_linear_52_863" x1="13.0374" y1="0" x2="13.0374" y2="17.3253" gradientUnits="userSpaceOnUse">
<stop stop-color="#071641"/>
<stop offset="1" stop-color="#0F2051"/>
</linearGradient>
<linearGradient id="paint7_linear_52_863" x1="3.29356" y1="5.42571" x2="16.774" y2="21.1821" gradientUnits="userSpaceOnUse">
<stop offset="0.116633" stop-color="#6F7AF6"/>
<stop offset="1" stop-color="#A7AFFF"/>
</linearGradient>
<linearGradient id="paint8_linear_52_863" x1="9.1164" y1="0" x2="9.1164" y2="17.5736" gradientUnits="userSpaceOnUse">
<stop stop-color="#071641"/>
<stop offset="1" stop-color="#0F2051"/>
</linearGradient>
<linearGradient id="paint9_linear_52_863" x1="3.29356" y1="5.42571" x2="16.774" y2="21.1821" gradientUnits="userSpaceOnUse">
<stop offset="0.116633" stop-color="#6F7AF6"/>
<stop offset="1" stop-color="#A7AFFF"/>
</linearGradient>
<linearGradient id="paint10_linear_52_863" x1="9.1164" y1="0" x2="9.1164" y2="17.5736" gradientUnits="userSpaceOnUse">
<stop stop-color="#071641"/>
<stop offset="1" stop-color="#0F2051"/>
</linearGradient>
<linearGradient id="paint11_linear_52_863" x1="5.16291" y1="4.77783" x2="5.16291" y2="17.5969" gradientUnits="userSpaceOnUse">
<stop stop-color="#071641"/>
<stop offset="1" stop-color="#0F2051"/>
</linearGradient>
<linearGradient id="paint12_linear_52_863" x1="5.16291" y1="4.77783" x2="5.16291" y2="17.5969" gradientUnits="userSpaceOnUse">
<stop stop-color="#071641"/>
<stop offset="1" stop-color="#0F2051"/>
</linearGradient>
</defs>
</svg>
