<svg width="42" height="42" viewBox="0 0 42 42" fill="none" xmlns="http://www.w3.org/2000/svg">
<path opacity="0.4" d="M29.7288 0.16687H12.2704C4.68709 0.16687 0.16626 4.6877 0.16626 12.271V29.7085C0.16626 37.3127 4.68709 41.8335 12.2704 41.8335H29.7079C37.2913 41.8335 41.8121 37.3127 41.8121 29.7294V12.271C41.8329 4.6877 37.3121 0.16687 29.7288 0.16687Z" fill="#A78DFB"/>
<path d="M11.2709 27.7501C10.9376 27.7501 10.6042 27.646 10.3126 27.4168C9.62507 26.896 9.50007 25.9168 10.0209 25.2293L14.9792 18.7918C15.5834 18.021 16.4376 17.521 17.4167 17.396C18.3751 17.271 19.3542 17.5418 20.1251 18.146L23.9376 21.146C24.0834 21.271 24.2292 21.271 24.3334 21.2501C24.4167 21.2501 24.5626 21.2085 24.6876 21.0418L29.5001 14.8335C30.0209 14.146 31.0209 14.021 31.6876 14.5626C32.3751 15.0835 32.5001 16.0626 31.9584 16.7501L27.1459 22.9585C26.5417 23.7293 25.6876 24.2293 24.7084 24.3335C23.7292 24.4585 22.7709 24.1876 22.0001 23.5835L18.1876 20.5835C18.0417 20.4585 17.8751 20.4585 17.7917 20.4793C17.7084 20.4793 17.5626 20.521 17.4376 20.6876L12.4792 27.1251C12.2084 27.5418 11.7501 27.7501 11.2709 27.7501Z" fill="#A78DFB"/>
</svg>
