<svg width="31" height="31" viewBox="0 0 31 31" fill="none" xmlns="http://www.w3.org/2000/svg">
<path d="M23.8952 16.3396V21.1188C23.8952 25.1488 20.1364 28.4167 15.4993 28.4167C10.8623 28.4167 7.10352 25.1488 7.10352 21.1188V16.3396C7.10352 20.3696 10.8623 23.25 15.4993 23.25C20.1364 23.25 23.8952 20.3696 23.8952 16.3396Z" stroke="#A78DFB" stroke-width="1.9375" stroke-linecap="round" stroke-linejoin="round"/>
<path d="M23.8952 9.88117C23.8952 11.0566 23.5723 12.1416 23.0039 13.0716C21.6218 15.3449 18.7802 16.7916 15.4993 16.7916C12.2185 16.7916 9.37685 15.3449 7.99477 13.0716C7.42644 12.1416 7.10352 11.0566 7.10352 9.88117C7.10352 7.86617 8.04642 6.04492 9.55767 4.72742C11.0818 3.397 13.1743 2.58325 15.4993 2.58325C17.8243 2.58325 19.9169 3.397 21.441 4.7145C22.9523 6.04492 23.8952 7.86617 23.8952 9.88117Z" stroke="#A78DFB" stroke-width="1.9375" stroke-linecap="round" stroke-linejoin="round"/>
<path d="M23.8952 9.88117V16.3395C23.8952 20.3695 20.1364 23.2499 15.4993 23.2499C10.8623 23.2499 7.10352 20.3695 7.10352 16.3395V9.88117C7.10352 5.85117 10.8623 2.58325 15.4993 2.58325C17.8243 2.58325 19.9169 3.397 21.441 4.7145C22.9523 6.04492 23.8952 7.86617 23.8952 9.88117Z" stroke="#A78DFB" stroke-width="1.9375" stroke-linecap="round" stroke-linejoin="round"/>
</svg>
