<svg width="20" height="20" viewBox="0 0 20 20" fill="none" xmlns="http://www.w3.org/2000/svg">
<path opacity="0.4" d="M17.0833 8.49175H14.6749C12.6999 8.49175 11.0916 6.88341 11.0916 4.90841V2.50008C11.0916 2.04175 10.7166 1.66675 10.2583 1.66675H6.72492C4.15825 1.66675 2.08325 3.33341 2.08325 6.30841V13.6917C2.08325 16.6667 4.15825 18.3334 6.72492 18.3334H13.2749C15.8416 18.3334 17.9166 16.6667 17.9166 13.6917V9.32508C17.9166 8.86675 17.5416 8.49175 17.0833 8.49175Z" fill="#6F7AF6"/>
<path d="M13.1658 1.84182C12.8241 1.50016 12.2324 1.73349 12.2324 2.20849V5.11682C12.2324 6.33349 13.2658 7.34182 14.5241 7.34182C15.3158 7.35016 16.4158 7.35016 17.3574 7.35016C17.8324 7.35016 18.0824 6.79182 17.7491 6.45849C16.5491 5.25016 14.3991 3.07516 13.1658 1.84182Z" fill="#6F7AF6"/>
<path d="M11.2498 11.4584H6.24976C5.90809 11.4584 5.62476 11.1751 5.62476 10.8334C5.62476 10.4918 5.90809 10.2084 6.24976 10.2084H11.2498C11.5914 10.2084 11.8748 10.4918 11.8748 10.8334C11.8748 11.1751 11.5914 11.4584 11.2498 11.4584Z" fill="#6F7AF6"/>
<path d="M9.58309 14.7917H6.24976C5.90809 14.7917 5.62476 14.5084 5.62476 14.1667C5.62476 13.8251 5.90809 13.5417 6.24976 13.5417H9.58309C9.92476 13.5417 10.2081 13.8251 10.2081 14.1667C10.2081 14.5084 9.92476 14.7917 9.58309 14.7917Z" fill="#6F7AF6"/>
</svg>
