<svg width="32" height="32" viewBox="0 0 32 32" fill="none" xmlns="http://www.w3.org/2000/svg">
<rect x="0.704102" y="0.704102" width="30.3064" height="30.3064" rx="8.81093" fill="#6F7AF6"/>
<path opacity="0.4" d="M19.0755 7.61551L12.2951 7.61592C9.35 7.6161 7.59435 9.37197 7.59453 12.3171L7.59494 19.0893C7.59512 22.0426 9.35099 23.7982 12.2961 23.7981L19.0684 23.7976C22.0135 23.7975 23.7692 22.0416 23.769 19.0964L23.7686 12.3161C23.7765 9.37098 22.0206 7.61533 19.0755 7.61551Z" fill="white"/>
<path d="M11.9077 18.3288C11.7782 18.3288 11.6488 18.2884 11.5355 18.1994C11.2685 17.9971 11.2199 17.6168 11.4222 17.3498L13.3477 14.8496C13.5823 14.5502 13.914 14.356 14.2943 14.3074C14.6665 14.2588 15.0468 14.364 15.3462 14.5986L16.8269 15.7637C16.8836 15.8122 16.9402 15.8122 16.9806 15.8041C17.013 15.8041 17.0696 15.7879 17.1182 15.7232L18.9871 13.3119C19.1893 13.0449 19.5777 12.9963 19.8366 13.2067C20.1036 13.409 20.1522 13.7892 19.9419 14.0562L18.073 16.4675C17.8384 16.7669 17.5066 16.9611 17.1264 17.0016C16.7461 17.0501 16.3739 16.945 16.0745 16.7104L14.5938 15.5453C14.5371 15.4968 14.4724 15.4968 14.44 15.5049C14.4077 15.5049 14.351 15.5211 14.3025 15.5858L12.377 18.0861C12.2718 18.2479 12.0938 18.3288 11.9077 18.3288Z" fill="white"/>
</svg>
