<svg width="10" height="11" viewBox="0 0 10 11" fill="none" xmlns="http://www.w3.org/2000/svg">
<path d="M9.18605 9.60117L1.11618 9.60062C0.950746 9.60061 0.813567 9.46341 0.813578 9.29798C0.813589 9.13255 0.950787 8.99537 1.11622 8.99538L9.1861 8.99593C9.35153 8.99594 9.48871 9.13313 9.4887 9.29857C9.48869 9.464 9.35149 9.60118 9.18605 9.60117Z" fill="#071641"/>
<path opacity="0.4" d="M8.7828 4.44855L8.78247 9.29855L1.49941 9.29806L1.51991 4.44402C1.51993 4.19789 1.63292 3.96389 1.83064 3.81058L4.65525 1.61576C4.94578 1.38579 5.35734 1.38582 5.64784 1.61583L6.1885 2.03549L7.97588 3.42363L8.47215 3.81103C8.66986 3.96437 8.78282 4.19838 8.7828 4.44855Z" fill="#071641"/>
<path d="M5.55441 7.28095L4.74742 7.28089C4.41252 7.28087 4.14216 7.55119 4.14214 7.88609L4.14205 9.29832L6.15951 9.29846L6.15961 7.88623C6.15963 7.55133 5.88931 7.28097 5.55441 7.28095Z" fill="#071641"/>
<path d="M4.14227 5.96962L3.33528 5.96957C3.11336 5.96955 2.9318 5.78797 2.93182 5.56605L2.93186 4.96081C2.93187 4.73888 3.11346 4.55732 3.33538 4.55734L4.14237 4.55739C4.36429 4.55741 4.54585 4.73899 4.54583 4.96091L4.54579 5.56616C4.54578 5.78808 4.36419 5.96964 4.14227 5.96962Z" fill="#071641"/>
<path d="M6.96676 5.96977L6.15978 5.96972C5.93786 5.96971 5.7563 5.78812 5.75631 5.5662L5.75635 4.96096C5.75637 4.73904 5.93795 4.55748 6.15987 4.55749L6.96686 4.55755C7.18878 4.55756 7.37034 4.73915 7.37033 4.96107L7.37029 5.56631C7.37027 5.78823 7.18869 5.96979 6.96676 5.96977Z" fill="#071641"/>
<path d="M7.97565 3.42382L6.18826 2.03568L7.56418 2.03577C7.7861 2.03578 7.96766 2.21333 7.96764 2.43525L7.97565 3.42382Z" fill="#071641"/>
</svg>
