<svg width="48" height="48" viewBox="0 0 48 48" fill="none" xmlns="http://www.w3.org/2000/svg">
<circle cx="23.582" cy="24.2602" r="23.4951" fill="#D9DCFA" fill-opacity="0.36"/>
<path d="M23.5812 36.118C30.1197 36.118 35.4391 30.7986 35.4391 24.2602C35.4391 17.7218 30.1197 12.4023 23.5812 12.4023C17.0428 12.4023 11.7234 17.7218 11.7234 24.2602C11.7234 30.7986 17.0428 36.118 23.5812 36.118ZM27.7232 20.7028C27.9596 20.6968 28.1948 20.7382 28.415 20.8245C28.6352 20.9108 28.8359 21.0403 29.0052 21.2055C29.1745 21.3706 29.3091 21.5679 29.4009 21.7858C29.4928 22.0038 29.5401 22.2379 29.54 22.4744C29.5399 22.7109 29.4925 22.945 29.4005 23.1629C29.3085 23.3808 29.1738 23.578 29.0044 23.743C28.8349 23.908 28.6342 24.0374 28.4139 24.1236C28.1937 24.2098 27.9584 24.251 27.722 24.2448C27.2602 24.2327 26.8215 24.0407 26.4992 23.7098C26.177 23.3788 25.9967 22.9351 25.9969 22.4732C25.997 22.0113 26.1776 21.5677 26.5 21.237C26.8225 20.9063 27.2614 20.7146 27.7232 20.7028ZM22.6231 28.9073C23.2556 29.0342 23.9069 29.0342 24.5393 28.9073C24.8394 28.8456 25.1382 28.7519 25.4287 28.631C25.7062 28.5124 25.9789 28.3654 26.2338 28.1946C26.4805 28.0262 26.7165 27.8318 26.9346 27.6148C27.1516 27.399 27.3461 27.163 27.5145 26.9128L29.4805 28.2373C28.9694 28.9949 28.3177 29.6474 27.5607 30.1595C26.7895 30.6799 25.9238 31.0441 25.0125 31.2314C24.0677 31.4212 23.0946 31.4208 22.15 31.2302C21.2384 31.0456 20.3726 30.6816 19.6029 30.1595C18.846 29.6461 18.1936 28.9934 17.6808 28.2361L19.6468 26.9116C19.8164 27.1618 20.0108 27.3978 20.2255 27.6112C20.8802 28.2692 21.714 28.7199 22.6231 28.9073ZM19.431 20.7028C19.6646 20.7029 19.896 20.749 20.1118 20.8385C20.3277 20.928 20.5238 21.0591 20.6889 21.2244C20.8541 21.3897 20.9851 21.5859 21.0745 21.8018C21.1638 22.0177 21.2097 22.249 21.2097 22.4827C21.2096 22.7164 21.1635 22.9477 21.074 23.1636C20.9845 23.3794 20.8534 23.5755 20.6881 23.7407C20.5228 23.9058 20.3266 24.0368 20.1107 24.1262C19.8948 24.2155 19.6635 24.2615 19.4298 24.2614C18.9579 24.2612 18.5054 24.0736 18.1718 23.7398C17.8383 23.406 17.651 22.9534 17.6511 22.4815C17.6513 22.0096 17.8389 21.5571 18.1727 21.2236C18.5065 20.89 18.9591 20.7027 19.431 20.7028Z" fill="#6F7AF6"/>
</svg>
