<svg width="31" height="31" viewBox="0 0 31 31" fill="none" xmlns="http://www.w3.org/2000/svg">
<circle cx="15.2881" cy="15.8599" r="15.0107" fill="white"/>
<path d="M15.2874 23.4358C19.4647 23.4358 22.8633 20.0373 22.8633 15.8599C22.8633 11.6826 19.4647 8.28409 15.2874 8.28409C11.1101 8.28409 7.71158 11.6826 7.71158 15.8599C7.71158 20.0373 11.1101 23.4358 15.2874 23.4358ZM17.9337 13.5872C18.0847 13.5833 18.235 13.6097 18.3757 13.6649C18.5164 13.72 18.6446 13.8028 18.7527 13.9083C18.8609 14.0138 18.9469 14.1399 19.0056 14.2791C19.0642 14.4183 19.0944 14.5679 19.0944 14.719C19.0943 14.8701 19.064 15.0197 19.0053 15.1589C18.9465 15.2981 18.8605 15.4241 18.7522 15.5295C18.644 15.6349 18.5157 15.7176 18.375 15.7727C18.2343 15.8277 18.084 15.854 17.9329 15.8501C17.6379 15.8424 17.3576 15.7197 17.1517 15.5083C16.9458 15.2969 16.8306 15.0134 16.8307 14.7183C16.8308 14.4232 16.9462 14.1398 17.1522 13.9285C17.3582 13.7172 17.6387 13.5947 17.9337 13.5872ZM14.6753 18.8289C15.0794 18.91 15.4955 18.91 15.8996 18.8289C16.0912 18.7895 16.2821 18.7297 16.4677 18.6524C16.645 18.5766 16.8193 18.4827 16.9821 18.3736C17.1397 18.266 17.2905 18.1418 17.4299 18.0031C17.5685 17.8653 17.6928 17.7145 17.8003 17.5547L19.0564 18.4009C18.7298 18.8849 18.3135 19.3018 17.8299 19.6289C17.3372 19.9614 16.7841 20.1941 16.2018 20.3138C15.5982 20.435 14.9765 20.4348 14.373 20.313C13.7906 20.1951 13.2375 19.9625 12.7457 19.6289C12.2621 19.3009 11.8454 18.8839 11.5177 18.4001L12.7738 17.5539C12.8821 17.7137 13.0063 17.8645 13.1435 18.0009C13.5617 18.4212 14.0945 18.7092 14.6753 18.8289ZM12.6359 13.5872C12.7852 13.5872 12.933 13.6167 13.0709 13.6739C13.2088 13.731 13.3341 13.8148 13.4396 13.9204C13.5451 14.026 13.6288 14.1513 13.6859 14.2893C13.743 14.4272 13.7723 14.575 13.7723 14.7243C13.7722 14.8736 13.7428 15.0214 13.6856 15.1593C13.6284 15.2972 13.5446 15.4225 13.439 15.528C13.3334 15.6335 13.2081 15.7172 13.0702 15.7743C12.9322 15.8314 12.7844 15.8607 12.6351 15.8607C12.3336 15.8606 12.0445 15.7407 11.8314 15.5275C11.6183 15.3142 11.4986 15.025 11.4987 14.7236C11.4988 14.4221 11.6187 14.133 11.832 13.9199C12.0452 13.7067 12.3344 13.5871 12.6359 13.5872Z" fill="#6F7AF6"/>
</svg>
