<svg width="10" height="11" viewBox="0 0 10 11" fill="none" xmlns="http://www.w3.org/2000/svg">
<path opacity="0.4" d="M7.72081 5.78529V7.77349C7.72081 8.28566 7.32156 8.83413 6.84165 8.99545L5.55517 9.42293C5.32933 9.49955 4.96234 9.49955 4.74053 9.42293L3.45405 8.99545C2.97011 8.83413 2.57489 8.28566 2.57489 7.77349L2.57892 5.78529L4.36144 6.94676C4.79699 7.23309 5.51484 7.23309 5.95039 6.94676L7.72081 5.78529Z" fill="#071641"/>
<path d="M8.36558 3.21246L5.9499 1.62755C5.51436 1.34121 4.79651 1.34121 4.36096 1.62755L1.93318 3.21246C1.15484 3.71656 1.15484 4.85786 1.93318 5.366L2.57844 5.78542L4.36096 6.94688C4.79651 7.23321 5.51436 7.23321 5.9499 6.94688L7.72033 5.78542L8.27283 5.42246V6.65651C8.27283 6.82186 8.40995 6.95898 8.57529 6.95898C8.74064 6.95898 8.87776 6.82186 8.87776 6.65651V4.67235C9.03907 4.15211 8.87372 3.54718 8.36558 3.21246Z" fill="#071641"/>
</svg>
