<svg width="19" height="18" viewBox="0 0 19 18" fill="none" xmlns="http://www.w3.org/2000/svg">
<path d="M7.67017 16.4998H12.1702C15.9202 16.4998 17.4202 14.9998 17.4202 11.2498V6.74976C17.4202 2.99976 15.9202 1.49976 12.1702 1.49976H7.67017C3.92017 1.49976 2.42017 2.99976 2.42017 6.74976V11.2498C2.42017 14.9998 3.92017 16.4998 7.67017 16.4998Z" stroke="#071641" stroke-width="1.125" stroke-linecap="round" stroke-linejoin="round"/>
<path d="M6.17017 6.18726C6.92017 6.93726 8.14267 6.93726 8.90017 6.18726" stroke="#071641" stroke-width="1.125" stroke-miterlimit="10" stroke-linecap="round" stroke-linejoin="round"/>
<path d="M10.9402 6.18726C11.6902 6.93726 12.9127 6.93726 13.6702 6.18726" stroke="#071641" stroke-width="1.125" stroke-miterlimit="10" stroke-linecap="round" stroke-linejoin="round"/>
<path d="M7.22017 9.74976H12.6202C12.9952 9.74976 13.2952 10.0498 13.2952 10.4248C13.2952 12.2923 11.7877 13.7998 9.92017 13.7998C8.05267 13.7998 6.54517 12.2923 6.54517 10.4248C6.54517 10.0498 6.84517 9.74976 7.22017 9.74976Z" stroke="#071641" stroke-width="1.125" stroke-miterlimit="10" stroke-linecap="round" stroke-linejoin="round"/>
</svg>
