<svg width="19" height="18" viewBox="0 0 19 18" fill="none" xmlns="http://www.w3.org/2000/svg">
<path d="M9.00241 12.645V14.1675C9.00241 15.4575 7.80241 16.5 6.32491 16.5C4.84741 16.5 3.63989 15.4575 3.63989 14.1675V12.645C3.63989 13.935 4.83991 14.85 6.32491 14.85C7.80241 14.85 9.00241 13.9275 9.00241 12.645Z" stroke="#071641" stroke-width="1.125" stroke-linecap="round" stroke-linejoin="round"/>
<path d="M9.00133 10.5823C9.00133 10.9573 8.89632 11.3023 8.71632 11.6023C8.27382 12.3298 7.36631 12.7873 6.31631 12.7873C5.26631 12.7873 4.35881 12.3223 3.91631 11.6023C3.73631 11.3023 3.63135 10.9573 3.63135 10.5823C3.63135 9.93731 3.93133 9.3598 4.41133 8.9398C4.89883 8.5123 5.56631 8.25732 6.30881 8.25732C7.05131 8.25732 7.71883 8.5198 8.20633 8.9398C8.70133 9.3523 9.00133 9.93731 9.00133 10.5823Z" stroke="#071641" stroke-width="1.125" stroke-linecap="round" stroke-linejoin="round"/>
<path d="M9.00241 10.5822V12.6447C9.00241 13.9347 7.80241 14.8497 6.32491 14.8497C4.84741 14.8497 3.63989 13.9272 3.63989 12.6447V10.5822C3.63989 9.29224 4.83991 8.24976 6.32491 8.24976C7.06741 8.24976 7.73493 8.51224 8.22243 8.93224C8.70243 9.35224 9.00241 9.93724 9.00241 10.5822Z" stroke="#071641" stroke-width="1.125" stroke-linecap="round" stroke-linejoin="round"/>
<path d="M17.4386 8.22713V9.77217C17.4386 10.1847 17.1086 10.5221 16.6886 10.5371H15.2186C14.4086 10.5371 13.6661 9.94464 13.5986 9.13464C13.5536 8.66214 13.7336 8.21964 14.0486 7.91214C14.3261 7.62714 14.7086 7.46216 15.1286 7.46216H16.6886C17.1086 7.47716 17.4386 7.81463 17.4386 8.22713Z" stroke="#071641" stroke-width="1.125" stroke-linecap="round" stroke-linejoin="round"/>
<path d="M2.43872 7.87476V6.37476C2.43872 4.33476 3.66872 2.90975 5.58122 2.66975C5.77622 2.63975 5.97872 2.62476 6.18872 2.62476H12.9387C13.1337 2.62476 13.3212 2.63225 13.5012 2.66225C15.4362 2.88725 16.6887 4.31976 16.6887 6.37476V7.46227H15.1287C14.7087 7.46227 14.3262 7.62725 14.0487 7.91225C13.7337 8.21975 13.5537 8.66225 13.5987 9.13475C13.6662 9.94475 14.4087 10.5372 15.2187 10.5372H16.6887V11.6248C16.6887 13.8748 15.1887 15.3748 12.9387 15.3748H11.0637" stroke="#071641" stroke-width="1.125" stroke-linecap="round" stroke-linejoin="round"/>
</svg>
