<svg width="19" height="18" viewBox="0 0 19 18" fill="none" xmlns="http://www.w3.org/2000/svg">
<path d="M7.68872 16.4996H12.1887C15.9387 16.4996 17.4387 14.9996 17.4387 11.2496V6.74963C17.4387 2.99963 15.9387 1.49963 12.1887 1.49963H7.68872C3.93872 1.49963 2.43872 2.99963 2.43872 6.74963V11.2496C2.43872 14.9996 3.93872 16.4996 7.68872 16.4996Z" stroke="#071641" stroke-width="1.125" stroke-linecap="round" stroke-linejoin="round"/>
<path d="M12.5637 13.8746C13.3887 13.8746 14.0637 13.1996 14.0637 12.3746V5.62463C14.0637 4.79963 13.3887 4.12463 12.5637 4.12463C11.7387 4.12463 11.0637 4.79963 11.0637 5.62463V12.3746C11.0637 13.1996 11.7312 13.8746 12.5637 13.8746Z" stroke="#071641" stroke-width="1.125" stroke-linecap="round" stroke-linejoin="round"/>
<path d="M7.31372 13.8746C8.13872 13.8746 8.81372 13.1996 8.81372 12.3746V9.74963C8.81372 8.92463 8.13872 8.24963 7.31372 8.24963C6.48872 8.24963 5.81372 8.92463 5.81372 9.74963V12.3746C5.81372 13.1996 6.48122 13.8746 7.31372 13.8746Z" stroke="#071641" stroke-width="1.125" stroke-linecap="round" stroke-linejoin="round"/>
</svg>
