<svg width="19" height="18" viewBox="0 0 19 18" fill="none" xmlns="http://www.w3.org/2000/svg">
<path d="M6.93872 8.54966C6.93872 9.12716 7.38872 9.59966 7.93622 9.59966H9.06122C9.54122 9.59966 9.93122 9.18716 9.93122 8.68466C9.93122 8.13716 9.69122 7.94216 9.33872 7.81466L7.53872 7.18466C7.17872 7.05716 6.93872 6.86216 6.93872 6.31466C6.93872 5.81216 7.32872 5.39966 7.80872 5.39966H8.93372C9.48872 5.40716 9.93872 5.87216 9.93872 6.44966" stroke="#071641" stroke-width="1.125" stroke-linecap="round" stroke-linejoin="round"/>
<path d="M8.43872 9.63708V10.1921" stroke="#071641" stroke-width="1.125" stroke-linecap="round" stroke-linejoin="round"/>
<path d="M8.43872 4.80713V5.39213" stroke="#071641" stroke-width="1.125" stroke-linecap="round" stroke-linejoin="round"/>
<path d="M8.43122 13.4846C11.7408 13.4846 14.4237 10.8017 14.4237 7.49213C14.4237 4.18257 11.7408 1.49963 8.43122 1.49963C5.12165 1.49963 2.43872 4.18257 2.43872 7.49213C2.43872 10.8017 5.12165 13.4846 8.43122 13.4846Z" stroke="#071641" stroke-width="1.125" stroke-linecap="round" stroke-linejoin="round"/>
<path d="M10.6738 14.9096C11.3488 15.8621 12.4513 16.4846 13.7113 16.4846C15.7588 16.4846 17.4238 14.8196 17.4238 12.7721C17.4238 11.5271 16.8088 10.4246 15.8713 9.74963" stroke="#071641" stroke-width="1.125" stroke-linecap="round" stroke-linejoin="round"/>
</svg>
