<svg width="19" height="18" viewBox="0 0 19 18" fill="none" xmlns="http://www.w3.org/2000/svg">
<path d="M16.3323 8.47475V5.27976C16.3323 2.25726 15.6273 1.49976 12.7923 1.49976H7.12228C4.28728 1.49976 3.58228 2.25726 3.58228 5.27976V13.7247C3.58228 15.7197 4.67728 16.1923 6.00478 14.7673L6.01227 14.7598C6.62727 14.1073 7.56477 14.1597 8.09727 14.8722L8.85477 15.8848" stroke="#071641" stroke-width="1.125" stroke-linecap="round" stroke-linejoin="round"/>
<path d="M6.95728 5.24976H12.9573" stroke="#071641" stroke-width="1.125" stroke-linecap="round" stroke-linejoin="round"/>
<path d="M7.70728 8.24976H12.2073" stroke="#071641" stroke-width="1.125" stroke-linecap="round" stroke-linejoin="round"/>
<path d="M14.6155 11.0775L11.9605 13.7325C11.8555 13.8375 11.758 14.0325 11.7355 14.175L11.593 15.1875C11.5405 15.555 11.7955 15.81 12.163 15.7575L13.1755 15.615C13.318 15.5925 13.5205 15.495 13.618 15.39L16.273 12.735C16.7305 12.2775 16.948 11.745 16.273 11.07C15.6055 10.4025 15.073 10.62 14.6155 11.0775Z" stroke="#071641" stroke-width="1.125" stroke-miterlimit="10" stroke-linecap="round" stroke-linejoin="round"/>
<path d="M14.2317 11.4597C14.4567 12.2697 15.0867 12.8997 15.8967 13.1247" stroke="#071641" stroke-width="1.125" stroke-miterlimit="10" stroke-linecap="round" stroke-linejoin="round"/>
</svg>
