<svg width="19" height="18" viewBox="0 0 19 18" fill="none" xmlns="http://www.w3.org/2000/svg">
<path d="M9.95728 10.8748C10.9928 10.8748 11.8323 10.0353 11.8323 8.99976C11.8323 7.96422 10.9928 7.12476 9.95728 7.12476C8.92174 7.12476 8.08228 7.96422 8.08228 8.99976C8.08228 10.0353 8.92174 10.8748 9.95728 10.8748Z" stroke="#071641" stroke-width="1.125" stroke-miterlimit="10" stroke-linecap="round" stroke-linejoin="round"/>
<path d="M14.8323 7.12476V10.8748" stroke="#071641" stroke-width="1.125" stroke-miterlimit="10" stroke-linecap="round" stroke-linejoin="round"/>
<path d="M7.70728 13.4998C7.70728 14.0623 7.54979 14.5948 7.27229 15.0448C6.75479 15.9148 5.80228 16.4998 4.70728 16.4998C3.61228 16.4998 2.65977 15.9148 2.14227 15.0448C1.86477 14.5948 1.70728 14.0623 1.70728 13.4998C1.70728 11.8423 3.04978 10.4998 4.70728 10.4998C6.36478 10.4998 7.70728 11.8423 7.70728 13.4998Z" stroke="#071641" stroke-width="1.125" stroke-miterlimit="10" stroke-linecap="round" stroke-linejoin="round"/>
<path d="M3.53833 13.4994L4.28082 14.2419L5.87833 12.7644" stroke="#071641" stroke-width="1.125" stroke-linecap="round" stroke-linejoin="round"/>
<path d="M2.45728 11.4747V6.74976C2.45728 4.12476 3.95728 2.99976 6.20728 2.99976H13.7073C15.9573 2.99976 17.4573 4.12476 17.4573 6.74976V11.2498C17.4573 13.8748 15.9573 14.9998 13.7073 14.9998H7.33228" stroke="#071641" stroke-width="1.125" stroke-miterlimit="10" stroke-linecap="round" stroke-linejoin="round"/>
</svg>
