<svg width="16" height="16" viewBox="0 0 16 16" fill="none" xmlns="http://www.w3.org/2000/svg">
<path d="M14.6667 5.66659C14.6667 8.05992 12.7267 9.99992 10.3333 9.99992C10.22 9.99992 10.1 9.99326 9.98667 9.98659C9.82001 7.87326 8.12666 6.17991 6.01333 6.01324C6.00666 5.89991 6 5.77992 6 5.66659C6 3.27325 7.94 1.33325 10.3333 1.33325C12.7267 1.33325 14.6667 3.27325 14.6667 5.66659Z" stroke="#A78DFB" stroke-width="1.5" stroke-linecap="round" stroke-linejoin="round"/>
<path d="M9.99967 10.3333C9.99967 12.7267 8.05967 14.6667 5.66634 14.6667C3.27301 14.6667 1.33301 12.7267 1.33301 10.3333C1.33301 7.94 3.27301 6 5.66634 6C5.77967 6 5.89967 6.00666 6.013 6.01333C8.12633 6.17999 9.81968 7.87334 9.98635 9.98667C9.99302 10.1 9.99967 10.22 9.99967 10.3333Z" stroke="#A78DFB" stroke-width="1.5" stroke-linecap="round" stroke-linejoin="round"/>
<path d="M3.72634 1.33325H1.99967C1.63301 1.33325 1.33301 1.63325 1.33301 1.99992V3.72658C1.33301 4.31992 2.053 4.61991 2.473 4.19991L4.19967 2.47325C4.613 2.05325 4.31967 1.33325 3.72634 1.33325Z" stroke="#A78DFB" stroke-width="1.5" stroke-linecap="round" stroke-linejoin="round"/>
<path d="M12.2738 14.6667H14.0005C14.3671 14.6667 14.6671 14.3667 14.6671 14V12.2733C14.6671 11.68 13.9471 11.38 13.5271 11.8L11.8005 13.5267C11.3871 13.9467 11.6805 14.6667 12.2738 14.6667Z" stroke="#A78DFB" stroke-width="1.5" stroke-linecap="round" stroke-linejoin="round"/>
</svg>
